<svg   xmlns:svg="http://www.w3.org/2000/svg" xmlns="http://www.w3.org/2000/svg" version="1.1" x="0px" y="0px" viewBox="0 0 100 125"><g transform="translate(0,-952.36217)"><path style="text-indent:0;text-transform:none;direction:ltr;block-progression:tb;baseline-shift:baseline;color:#20868F;enable-background:accumulate;" d="m 50,957.89342 c -24.54275,0 -44.46875,19.92598 -44.46875,44.46878 0,24.5428 19.926,44.4687 44.46875,44.4687 24.54277,0 44.46875,-19.9259 44.46875,-44.4687 0,-24.5428 -19.92598,-44.46878 -44.46875,-44.46878 z m -2.21875,4.03125 c -0.0662,0.38542 -0.125,0.79378 -0.125,1.21875 0,2.29636 1.05205,4.15625 2.34375,4.15625 1.2917,0 2.34375,-1.85989 2.34375,-4.15625 0,-0.42497 -0.0588,-0.83333 -0.125,-1.21875 6.04732,0.32441 11.72825,1.96943 16.78125,4.65625 -0.47026,0.51185 -0.95591,1.18874 -1.40625,1.96875 -1.14817,1.98869 -1.55897,3.8912 -0.9375,4.25 0.62147,0.35881 2.03932,-0.9488 3.1875,-2.9375 0.45251,-0.78378 0.79212,-1.55335 1,-2.21875 5.40049,3.24676 9.96961,7.71781 13.34375,13.03125 -0.52608,0.20347 -1.07833,0.47884 -1.65625,0.8125 -1.9887,1.14817 -3.29631,2.59728 -2.9375,3.21875 0.3588,0.62147 2.23006,0.17942 4.21875,-0.96875 0.59003,-0.34066 1.11755,-0.70137 1.5625,-1.0625 2.90833,5.22347 4.72332,11.14408 5.0625,17.46873 -0.39426,-0.07 -0.81384,-0.125 -1.25,-0.125 -2.29637,0 -4.15625,1.0521 -4.15625,2.3438 0,1.2916 1.85988,2.3437 4.15625,2.3437 0.43616,0 0.85574,-0.055 1.25,-0.125 -0.32567,6.0727 -2.01258,11.775 -4.71875,16.8438 -0.46664,-0.3907 -1.01643,-0.7869 -1.65625,-1.1563 -1.98868,-1.1482 -3.89118,-1.5901 -4.25,-0.9687 -0.35879,0.6215 0.94883,2.0393 2.9375,3.1875 0.65126,0.376 1.29524,0.6656 1.875,0.875 -3.25758,5.3651 -7.7279,9.9024 -13.03125,13.25 -0.21,-0.5897 -0.52201,-1.2408 -0.90625,-1.9063 -1.14814,-1.9886 -2.56605,-3.2963 -3.1875,-2.9375 -0.62146,0.3587 -0.17938,2.2614 0.96875,4.25 0.39135,0.6779 0.80591,1.2687 1.21875,1.75 -5.22202,2.9074 -11.14541,4.6922 -17.46875,5.0313 0.061,-0.3714 0.125,-0.749 0.125,-1.1563 0,-2.2962 -1.05205,-4.1562 -2.34375,-4.1562 -1.2917,0 -2.34375,1.86 -2.34375,4.1562 0,0.4073 0.064,0.7849 0.125,1.1563 -6.36292,-0.3413 -12.31678,-2.1541 -17.5625,-5.0938 0.41284,-0.4813 0.8274,-1.0721 1.21875,-1.75 1.14817,-1.9887 1.59022,-3.8599 0.96875,-4.2187 -0.62147,-0.3588 -2.03934,0.9488 -3.1875,2.9375 -0.38395,0.665 -0.66502,1.3169 -0.875,1.9062 -5.29727,-3.3565 -9.75137,-7.9099 -13,-13.2812 0.5622,-0.208 1.18586,-0.482 1.8125,-0.8438 1.98869,-1.1482 3.2963,-2.5661 2.9375,-3.1875 -0.3588,-0.6215 -2.26131,-0.2107 -4.25,0.9375 -0.62147,0.3588 -1.16602,0.7452 -1.625,1.125 -2.66603,-5.0269 -4.32476,-10.6773 -4.65625,-16.6875 0.25172,0.027 0.51535,0.062 0.78125,0.062 2.29634,0 4.125,-1.0521 4.125,-2.3437 0,-1.2917 -1.82866,-2.3438 -4.125,-2.3438 -0.2659,0 -0.52953,0.036 -0.78125,0.062 0.34534,-6.26144 2.1336,-12.13023 5,-17.31248 0.43516,0.34876 0.96181,0.70248 1.53125,1.03125 1.98872,1.14817 3.85995,1.55897 4.21875,0.9375 0.35881,-0.62147 -0.9488,-2.03931 -2.9375,-3.1875 -0.56431,-0.3258 -1.10933,-0.57941 -1.625,-0.78125 3.35988,-5.32368 7.92158,-9.80111 13.3125,-13.0625 0.20858,0.6593 0.55344,1.41404 1,2.1875 1.14817,1.98868 2.56604,3.29631 3.1875,2.9375 0.62146,-0.3588 0.21068,-2.23005 -0.9375,-4.21875 -0.45034,-0.78001 -0.93599,-1.4569 -1.40625,-1.96875 5.07755,-2.71797 10.78825,-4.39223 16.875,-4.71875 z m -8.25,17.75 6.59375,21.28123 c -0.15792,0.4386 -0.28125,0.9133 -0.28125,1.4063 0,2.2893 1.86703,4.1562 4.15625,4.1562 2.08801,0 3.80618,-1.554 4.09375,-3.5625 l 25.0625,-13.37498 -26.96875,9.28125 c -0.58669,-0.36768 -1.26477,-0.59167 -2,-0.625 l -10.65625,-18.5625 z" fill="#20868F" fill-opacity="1" stroke="none" marker="none" visibility="visible" display="inline" overflow="visible"/></g></svg>